<svg version="1.1" id="Layer_1" xmlns="http://www.w3.org/2000/svg" xmlns:xlink="http://www.w3.org/1999/xlink" x="0px" y="0px"
	 width="100%" viewBox="0 0 341 154" enable-background="new 0 0 341 154" xml:space="preserve">
<path fill="#F7F8F7" opacity="1.000000" stroke="none" 
	d="
M258.000000,155.000000 
	C173.333359,155.000000 89.166672,154.973343 5.000200,155.095947 
	C1.576030,155.100922 0.892303,154.425293 0.902346,150.999771 
	C1.045521,102.166870 1.034054,53.333340 0.916802,4.500297 
	C0.909641,1.517595 1.517698,0.915944 4.499972,0.918531 
	C115.833191,1.015114 227.166534,1.015098 338.499756,0.918594 
	C341.481232,0.916009 342.090393,1.516534 342.083252,4.500019 
	C341.966034,53.499729 341.966095,102.499878 342.083191,151.499588 
	C342.090302,154.481949 341.485260,155.101883 338.499756,155.085464 
	C311.833801,154.938797 285.166748,155.000000 258.000000,155.000000 
z"/>
<path fill="#4BB22D" opacity="1.000000" stroke="none" 
	d="
M307.853882,144.598663 
	C295.918579,149.946182 283.590057,149.264847 271.365509,148.655457 
	C262.240967,148.200607 253.163071,146.866196 244.051178,146.075928 
	C240.389297,145.758316 238.794083,144.112030 238.801010,140.380661 
	C238.860794,108.219986 238.879379,76.059006 238.767929,43.898605 
	C238.756668,40.649376 239.978760,39.791851 242.868073,40.131634 
	C244.018570,40.266933 245.209564,40.048512 246.362778,40.171894 
	C250.403992,40.604244 251.571198,38.618435 251.485062,34.856998 
	C251.309601,27.195759 251.699768,19.514769 251.329773,11.867415 
	C251.119125,7.513313 252.691757,6.198132 256.693512,6.812417 
	C257.670441,6.962379 258.695770,6.907917 259.688446,6.823985 
	C262.941162,6.548955 264.027649,7.994134 263.990753,11.228770 
	C263.850281,23.550228 263.934082,35.874245 263.934082,48.716362 
	C269.393524,47.994652 274.242340,45.747906 279.470764,45.336159 
	C290.849731,44.440037 302.131927,44.487064 312.696533,49.468510 
	C322.738373,54.203442 329.166931,62.390785 331.902496,72.955002 
	C335.230896,85.808548 335.164703,98.915756 333.003967,112.040504 
	C332.553467,114.777054 331.594299,115.702957 328.893097,115.613350 
	C323.899536,115.447693 318.891724,115.701775 313.899017,115.523712 
	C310.171570,115.390770 308.870453,116.997910 308.961243,120.595474 
	C309.120941,126.923615 309.058685,133.259460 308.967438,139.590317 
	C308.944885,141.153748 309.698822,142.952576 307.853882,144.598663 
z"/>
<path fill="#4AB22D" opacity="1.000000" stroke="none" 
	d="
M186.817108,46.939014 
	C194.780807,48.296497 201.217484,52.256741 206.680008,57.077621 
	C211.589706,61.410625 213.630234,68.103172 213.722748,74.654938 
	C214.056824,98.311951 213.982635,121.974678 214.078903,145.635193 
	C214.085571,147.273636 213.837326,148.755280 211.871750,148.908493 
	C206.029373,149.363907 199.845596,149.802612 195.465164,145.286591 
	C192.169617,141.889053 189.246109,141.446396 185.566330,143.653107 
	C175.295273,149.812469 164.029663,149.278320 152.778473,148.518707 
	C146.133408,148.070068 139.903625,146.071640 134.183640,142.495636 
	C124.668472,136.546982 121.435745,127.504402 121.166924,116.886002 
	C120.706879,98.714279 132.969330,88.121010 148.322128,85.914909 
	C160.436417,84.174171 172.530716,84.195618 184.607925,85.924065 
	C188.208267,86.439331 189.164825,85.387627 189.078400,81.822601 
	C188.880234,73.648529 183.711639,67.297318 175.345764,66.109695 
	C164.310455,64.543121 153.366776,64.433067 142.491364,67.805901 
	C129.782425,71.747375 129.715744,71.532433 129.715790,58.369190 
	C129.715805,49.222839 129.711517,49.202343 138.278625,47.402561 
	C154.282303,44.040485 170.330139,44.166458 186.817108,46.939014 
z"/>
<path fill="#49B12B" opacity="1.000000" stroke="none" 
	d="
M24.070255,84.000000 
	C24.070280,59.836967 24.162804,36.173237 23.985579,12.511532 
	C23.953440,8.220316 25.076036,6.439093 29.589460,6.762819 
	C34.397308,7.107663 39.271984,7.132858 44.075142,6.756799 
	C48.765015,6.389609 50.307297,7.793397 50.273560,12.736473 
	C50.031342,48.228855 50.098801,83.723358 50.072067,119.217194 
	C50.066963,125.996498 50.075371,125.998657 56.847599,125.999390 
	C70.678810,126.000900 84.515106,126.213181 98.338455,125.883362 
	C103.133881,125.768959 104.426132,127.396759 104.074371,131.857498 
	C103.734818,136.163406 103.871429,140.522217 104.045242,144.847900 
	C104.162926,147.776794 103.269241,149.060410 100.124847,149.045166 
	C80.961578,148.952194 61.797421,148.956467 42.634140,149.048798 
	C40.006004,149.061478 39.148918,148.225250 39.231766,145.620743 
	C39.395920,140.460129 39.183189,135.288147 39.314102,130.125626 
	C39.387623,127.226463 38.477585,125.995575 35.344128,125.900665 
	C32.044594,125.800735 31.706484,127.488480 32.096806,129.881134 
	C32.846779,134.478439 30.720102,135.612335 26.495283,135.354019 
	C21.348600,135.039337 16.164970,135.169235 11.003417,135.318130 
	C7.965513,135.405762 6.876783,134.219666 6.955369,131.207031 
	C7.111752,125.212029 7.126177,119.206413 6.949978,113.212509 
	C6.859172,110.123489 8.096386,108.912094 11.046672,109.159729 
	C11.212112,109.173607 11.379915,109.164711 11.546421,109.159760 
	C15.515665,109.041748 20.939880,110.459686 23.092272,108.421913 
	C25.893330,105.770020 23.856754,100.265625 24.036358,95.996574 
	C24.197319,92.170685 24.070246,88.332664 24.070255,84.000000 
z"/>
<path fill="#4DB330" opacity="1.000000" stroke="none" 
	d="
M340.898254,124.308907 
	C340.976440,131.606918 340.890533,138.434479 341.036163,145.257111 
	C341.095245,148.023865 340.215027,149.141281 337.337128,149.058090 
	C331.681580,148.894592 326.017761,148.982056 320.357727,149.020203 
	C316.898682,149.043518 315.171478,147.542557 315.236633,143.939697 
	C315.335938,138.447693 315.373016,132.949326 315.212036,127.460243 
	C315.142487,125.087807 316.043762,123.120964 318.176208,123.128754 
	C325.726074,123.156334 333.338013,121.877090 340.898254,124.308907 
z"/>
<path fill="#4AB22C" opacity="1.000000" stroke="none" 
	d="
M224.224854,6.835241 
	C230.010178,6.836273 235.321167,6.910521 240.628677,6.806740 
	C243.138077,6.757672 244.242996,7.622425 244.196457,10.254441 
	C244.084961,16.557570 244.100952,22.864853 244.188980,29.168734 
	C244.227341,31.915308 243.149536,33.032993 240.353531,32.968784 
	C234.715088,32.839310 229.068130,32.812836 223.431503,32.977367 
	C220.243576,33.070423 218.925659,31.953176 219.021347,28.670147 
	C219.190491,22.867741 219.233429,17.050444 219.008209,11.251845 
	C218.867188,7.620843 220.444244,6.456773 224.224854,6.835241 
z"/>
<path fill="#BDDAC9" opacity="1.000000" stroke="none" 
	d="
M340.983826,22.717480 
	C340.983795,24.649050 340.983795,26.126942 340.983795,27.604834 
	C340.768799,27.606705 340.553772,27.608576 340.338776,27.610447 
	C340.338776,21.412935 340.338776,15.215422 340.338776,9.017909 
	C340.553802,9.013062 340.768799,9.008215 340.983826,9.003367 
	C340.983826,13.423512 340.983826,17.843657 340.983826,22.717480 
z"/>
<path fill="#F7F8F7" opacity="1.000000" stroke="none" 
	d="
M263.934326,100.999985 
	C263.934357,92.334938 264.143829,84.161964 263.835785,76.008537 
	C263.704590,72.535370 264.814209,70.935097 268.090363,70.141945 
	C273.955719,68.721954 279.568024,66.278175 285.712646,65.992851 
	C297.688171,65.436783 308.495178,73.890419 309.348846,86.531685 
	C309.825287,93.587151 310.189392,100.675858 308.477844,107.385666 
	C305.233978,120.102646 298.802368,127.581665 284.717804,127.219734 
	C278.738617,127.066078 272.807526,126.863129 266.897369,125.409927 
	C264.190887,124.744453 263.884155,123.703270 263.908417,121.495766 
	C263.981659,114.831215 263.934570,108.165329 263.934326,100.999985 
z"/>
<path fill="#F6F7F6" opacity="1.000000" stroke="none" 
	d="
M178.197250,125.595238 
	C170.803879,126.793503 163.875427,128.701752 156.640015,127.168007 
	C149.795898,125.717216 147.483322,123.294197 147.193817,116.487244 
	C146.965897,111.128387 150.657974,106.092125 156.053146,104.949226 
	C166.123337,102.815971 176.213776,104.263611 186.292160,105.110619 
	C187.716675,105.230347 188.317917,106.309982 188.739700,107.293068 
	C191.364243,113.410240 187.942337,121.622284 181.809067,124.145493 
	C180.735794,124.587036 179.648346,124.994164 178.197250,125.595238 
z"/>
</svg>